<svg xmlns="http://www.w3.org/2000/svg" xmlns:xlink="http://www.w3.org/1999/xlink" width="80" height="80" viewBox="0 0 80 80">
  <defs>
    <clipPath id="clip-path">
      <rect id="사각형_1583" data-name="사각형 1583" width="40" height="49.213" fill="none"/>
    </clipPath>
  </defs>
  <g id="그룹_1922" data-name="그룹 1922" transform="translate(-430 -2265)">
    <g id="사각형_1581" data-name="사각형 1581" transform="translate(430 2265)" fill="#f5f5f5" stroke="#d6d6d6" stroke-width="1">
      <rect width="80" height="80" rx="30" stroke="none"/>
      <rect x="0.5" y="0.5" width="79" height="79" rx="29.5" fill="none"/>
    </g>
    <g id="그룹_1916" data-name="그룹 1916" transform="translate(450 2280.394)">
      <g id="그룹_1915" data-name="그룹 1915" clip-path="url(#clip-path)">
        <path id="패스_23697" data-name="패스 23697" d="M28.335,52.829H11.665a3.523,3.523,0,0,1-3.356-2.5l-.52-1.742a70.6,70.6,0,0,0-5.46-12.967,19.958,19.958,0,0,1,5.2-24.979A3.9,3.9,0,0,0,8.94,7.61V6.368H31.059V7.636a3.941,3.941,0,0,0,1.508,3.054,20.006,20.006,0,0,1,5.092,24.953,79.628,79.628,0,0,0-5.968,14.684,3.523,3.523,0,0,1-3.356,2.5M11.109,8.615a6.016,6.016,0,0,1-2.17,3.777A17.714,17.714,0,0,0,4.312,34.563a72.772,72.772,0,0,1,5.63,13.38l.52,1.742a1.263,1.263,0,0,0,1.2.9h16.67a1.263,1.263,0,0,0,1.2-.9,81.8,81.8,0,0,1,6.138-15.1,17.759,17.759,0,0,0-4.522-22.148,6.24,6.24,0,0,1-2.262-3.822Z" transform="translate(0 -3.616)" fill="#41444b"/>
        <path id="패스_23698" data-name="패스 23698" d="M40.5,0H19.73a1.913,1.913,0,0,0-1.913,1.913V4.169h24.6V1.913A1.913,1.913,0,0,0,40.5,0" transform="translate(-10.117)" fill="#41444b"/>
        <path id="패스_23699" data-name="패스 23699" d="M49.288,72.244,33.9,47.346l5.663.064L52.009,67.344Z" transform="translate(-22.286 -30.528)" fill="#5580cc"/>
        <path id="패스_23700" data-name="패스 23700" d="M34.647,72.244l15.39-24.9-5.663.064L31.926,67.344Z" transform="translate(-21.649 -30.528)" fill="#81a5e5"/>
        <path id="패스_23701" data-name="패스 23701" d="M50.673,45.087H33.9L36.812,40.3H47.759Z" transform="translate(-22.285 -28.254)" fill="#5580cc"/>
      </g>
    </g>
  </g>
</svg>
