<svg xmlns="http://www.w3.org/2000/svg" xmlns:xlink="http://www.w3.org/1999/xlink" width="677.222" height="118.821" viewBox="0 0 677.222 118.821">
  <defs>
    <clipPath id="clip-path">
      <rect id="사각형_1475" data-name="사각형 1475" width="289.222" height="27.643" fill="none"/>
    </clipPath>
  </defs>
  <g id="그룹_1869" data-name="그룹 1869" transform="translate(-468.778 -312.179)">
    <g id="그룹_1787" data-name="그룹 1787" transform="translate(468.778 312.18)">
      <path id="패스_22717" data-name="패스 22717" d="M8.158,6.5v8.664H2.634Zm.786-4.71L0,15.392V17.1H8.158v3.786h2.525V17.1h2.634V15.167H10.683V1.793Z" transform="translate(0 1.317)"/>
      <g id="그룹_1786" data-name="그룹 1786" transform="translate(0 0)">
        <g id="그룹_1785" data-name="그룹 1785" clip-path="url(#clip-path)">
          <path id="패스_22718" data-name="패스 22718" d="M11.949,9.807a1.625,1.625,0,0,1-1.136.421,1.642,1.642,0,0,1-1.122-.421A1.489,1.489,0,0,1,9.216,8.63a1.5,1.5,0,0,1,.475-1.164,1.615,1.615,0,0,1,1.122-.435,1.6,1.6,0,0,1,1.136.435,1.52,1.52,0,0,1,.463,1.164,1.511,1.511,0,0,1-.463,1.178" transform="translate(6.766 5.163)"/>
          <path id="패스_22719" data-name="패스 22719" d="M22.993,19.594a6.939,6.939,0,0,1-4.949,1.585A21.517,21.517,0,0,1,15.283,21a20.451,20.451,0,0,1-2.567-.493l-.139-3.588H14.26l.645,1.991a4.853,4.853,0,0,0,1.332.394,7.822,7.822,0,0,0,1.583.111,4.331,4.331,0,0,0,3.113-1.037A3.76,3.76,0,0,0,21.943,15.6a3.549,3.549,0,0,0-.364-1.668,3.6,3.6,0,0,0-.926-1.134,3.344,3.344,0,0,0-1.235-.631,4.921,4.921,0,0,0-1.288-.182l-1.514.055-.562-.56L16.7,10.1l1.373-.083a2.928,2.928,0,0,0,1.094-.239,3.737,3.737,0,0,0,1.094-.687,3.691,3.691,0,0,0,.813-1.065,3.2,3.2,0,0,0,.336-1.486,2.758,2.758,0,0,0-.884-2.313,4.012,4.012,0,0,0-2.509-.687,6.456,6.456,0,0,0-1.288.127,4.348,4.348,0,0,0-1.067.35l-.532,1.738h-1.71V2.7a17,17,0,0,1,2.256-.673,10.772,10.772,0,0,1,2.341-.251A7.193,7.193,0,0,1,22.588,3,4.288,4.288,0,0,1,24.1,6.543a3.841,3.841,0,0,1-1.009,2.567,6.076,6.076,0,0,1-2.523,1.724A5.939,5.939,0,0,1,23.456,12.5a4.36,4.36,0,0,1,1.205,3.154,5.212,5.212,0,0,1-1.668,3.938" transform="translate(9.234 1.305)"/>
          <path id="패스_22720" data-name="패스 22720" d="M39.25,20.59q-1.431.351-2.861.631-1.457.252-2.775.435t-2.272.293c-.3.038-.656.075-1.065.113s-.841.075-1.29.113l-1.318.055a10.908,10.908,0,0,1-1.12,0c-.208,0-.444-.009-.716-.028a2.361,2.361,0,0,1-.827-.224.693.693,0,0,1-.42-.364A.974.974,0,0,1,24.556,21l.2-1.15a11.157,11.157,0,0,0,1.6.224q.814.057,1.6.057c.524,0,1.042-.01,1.557-.028s1.049-.057,1.609-.113c.638-.057,1.365-.132,2.189-.225s1.663-.213,2.523-.364,1.71-.317,2.551-.5a18.572,18.572,0,0,0,2.27-.645.706.706,0,0,1,.548.071c.215.1.4.192.546.267a1.141,1.141,0,0,1,.519.657q.1.38-.406.546a21.724,21.724,0,0,1-2.606.8M31.637,7.342c-.421.019-.836.038-1.249.055-.43.021-.85.038-1.261.057s-.832.038-1.262.055a6.6,6.6,0,0,1-1.233,0,2.23,2.23,0,0,1-.813-.224.627.627,0,0,1-.378-.378.9.9,0,0,1-.042-.52l.2-1.316a21.362,21.362,0,0,0,2.284.323c.626.045,1.249.069,1.864.069.338.019.678.024,1.025.014s.7-.023,1.051-.042v-1.6a2.032,2.032,0,0,0-.1-.77,2.081,2.081,0,0,0-.519-.576.388.388,0,0,1-.14-.323.8.8,0,0,1,.114-.406,1.191,1.191,0,0,1,.21-.336.275.275,0,0,1,.265-.113l1.908.588c.447.151.714.323.8.52a2.12,2.12,0,0,1,.125.8V5.3q1.035-.029,1.934-.1a10.828,10.828,0,0,0,1.15-.125,7.992,7.992,0,0,1,1.373-.113,1.776,1.776,0,0,1,.7.225l.758.447c.356.224.546.416.576.574a1.154,1.154,0,0,1-.21.687,1.963,1.963,0,0,1-.449.562.751.751,0,0,1-.645,0A12.407,12.407,0,0,0,38.114,7.2a15.16,15.16,0,0,0-1.557-.085c-.279,0-.56.005-.839.014s-.571.024-.871.042l-.924.057c-.319.017-.647.028-.982.028q-.674.055-1.3.083M29.141,9.8a6.165,6.165,0,0,1,4.108-1.332A5.978,5.978,0,0,1,37.257,9.8a4.416,4.416,0,0,1,1.571,3.546,4.47,4.47,0,0,1-.421,1.949,4.74,4.74,0,0,1-1.15,1.528,5.1,5.1,0,0,1-1.765,1,7,7,0,0,1-2.242.35,6.081,6.081,0,0,1-4.108-1.36,4.364,4.364,0,0,1-1.583-3.463A4.4,4.4,0,0,1,29.141,9.8m1.795,1.5a2.7,2.7,0,0,0-.8,2.019,2.692,2.692,0,0,0,.8,2.032,3.2,3.2,0,0,0,2.313.772,3.025,3.025,0,0,0,2.215-.772,2.727,2.727,0,0,0,.784-2.032,2.738,2.738,0,0,0-.784-2.019,3,3,0,0,0-2.215-.786,3.165,3.165,0,0,0-2.313.786M42.921,2.8a1.58,1.58,0,0,0-.224-.91,2.7,2.7,0,0,0-.73-.659.376.376,0,0,1-.194-.35,1.022,1.022,0,0,1,.111-.463,1.006,1.006,0,0,1,.364-.35.558.558,0,0,1,.5-.014L44.66.893a1.729,1.729,0,0,1,.8.562,1.772,1.772,0,0,1,.125.758V23.576a2.645,2.645,0,0,1-.239,1.094,5.055,5.055,0,0,1-.574.982,8.769,8.769,0,0,1-.671.8,4.384,4.384,0,0,1-.534.491.483.483,0,0,1-.42.127c-.151-.028-.225-.108-.225-.239Z" transform="translate(18.002 0.001)"/>
          <path id="패스_22721" data-name="패스 22721" d="M47.057,7.4c-.168.466-.347.907-.532,1.318L48.43,10.4a2.244,2.244,0,0,0,.42.378c.149.1.3.2.449.295.13.075.271.154.42.238s.3.165.449.239c.151.092.276.166.38.224a2.212,2.212,0,0,1,.265.168,1.113,1.113,0,0,1,.2.279,2.993,2.993,0,0,1,.166.449l.281,1.067a2.026,2.026,0,0,1,.113.827c-.038.121-.187.238-.449.35a.858.858,0,0,1-.56.154,1.525,1.525,0,0,1-.617-.408L45.6,10.372a14.438,14.438,0,0,1-2.411,3.014,26.831,26.831,0,0,1-2.216,1.864,2.483,2.483,0,0,1-.447.224,1.3,1.3,0,0,1-.449.113.89.89,0,0,1-.588-.212.986.986,0,0,1-.336-.489.659.659,0,0,1,.028-.421.935.935,0,0,1,.168-.336,21.011,21.011,0,0,0,1.836-1.71,16.791,16.791,0,0,0,1.667-2.046,15.037,15.037,0,0,0,1.3-2.286,10.227,10.227,0,0,0,.772-2.4.721.721,0,0,0-.069-.408,1.222,1.222,0,0,0-.408-.434l-.532-.364a.331.331,0,0,1-.139-.309.993.993,0,0,1,.111-.449,1.345,1.345,0,0,1,.224-.394.3.3,0,0,1,.281-.139c.168.055.388.121.659.2s.538.158.8.251q.419.14.77.281c.234.094.425.168.574.224a.947.947,0,0,1,.435.6,2.231,2.231,0,0,1-.069,1.164q-.252.786-.5,1.486m1.387,12.994a4.84,4.84,0,0,1,1.08-1.724A5.926,5.926,0,0,1,51.4,17.478a7.037,7.037,0,0,1,2.691-.463,6.529,6.529,0,0,1,2.537.463,5.627,5.627,0,0,1,1.836,1.191,5.24,5.24,0,0,1,1.542,3.7,5.384,5.384,0,0,1-.364,1.935,4.766,4.766,0,0,1-1.094,1.682,5.249,5.249,0,0,1-1.835,1.205,6.949,6.949,0,0,1-2.622.449,6.878,6.878,0,0,1-2.636-.463,5.946,5.946,0,0,1-1.878-1.191,4.883,4.883,0,0,1-1.122-1.7,5.277,5.277,0,0,1-.364-1.921,5.753,5.753,0,0,1,.35-1.977m3.1-.265a3.331,3.331,0,0,0-.786,2.187,3.423,3.423,0,0,0,.786,2.173,3.05,3.05,0,0,0,2.551,1,2.93,2.93,0,0,0,2.509-1,3.563,3.563,0,0,0,.744-2.173,3.466,3.466,0,0,0-.744-2.187,3,3,0,0,0-2.509-.954,3.123,3.123,0,0,0-2.551.954M53,4.6a1.457,1.457,0,0,0-.253-.883,2.853,2.853,0,0,0-.756-.687.409.409,0,0,1-.21-.35.91.91,0,0,1,.1-.463,1.026,1.026,0,0,1,.35-.35.528.528,0,0,1,.491-.014l1.85.841a1.709,1.709,0,0,1,.8.56,1.747,1.747,0,0,1,.127.758V7.623h3.056V2.8a1.447,1.447,0,0,0-.251-.91,3.226,3.226,0,0,0-.758-.659.407.407,0,0,1-.21-.35.917.917,0,0,1,.1-.463,1.026,1.026,0,0,1,.35-.35.528.528,0,0,1,.491-.014l1.85.841a1.7,1.7,0,0,1,.8.56,1.744,1.744,0,0,1,.128.758V13.568a2.935,2.935,0,0,1-.21,1.093,4.942,4.942,0,0,1-.52.982,5.629,5.629,0,0,1-.6.8,3.788,3.788,0,0,1-.52.491.483.483,0,0,1-.42.127c-.151-.029-.225-.108-.225-.239V9.558H55.5V12.39a2.948,2.948,0,0,1-.21,1.093,4.848,4.848,0,0,1-.519.982,5.532,5.532,0,0,1-.6.8,3.788,3.788,0,0,1-.52.491.477.477,0,0,1-.42.125c-.151-.028-.225-.106-.225-.238Z" transform="translate(28.726 0.001)"/>
          <path id="패스_22722" data-name="패스 22722" d="M63.225,10.665q-.2.518-.449,1.08l3.673,3.588a2.933,2.933,0,0,0,.673.546,6.169,6.169,0,0,0,.786.408c.166.111.307.2.42.265a1.519,1.519,0,0,1,.309.239,2.287,2.287,0,0,1,.212.321,2.474,2.474,0,0,1,.18.493l.253,1.065a1.512,1.512,0,0,1,0,.714.78.78,0,0,1-.42.406,1.083,1.083,0,0,1-.787.17,1.371,1.371,0,0,1-.671-.477l-5.5-6.057a26.562,26.562,0,0,1-2.523,3.548,17.567,17.567,0,0,1-3.252,3.042,3.8,3.8,0,0,1-.463.267,1.04,1.04,0,0,1-.435.1,1.83,1.83,0,0,1-.77-.127.933.933,0,0,1-.435-.519.563.563,0,0,1,.056-.477,1.3,1.3,0,0,1,.309-.42,17.44,17.44,0,0,0,2.818-2.58,19.822,19.822,0,0,0,2.06-2.8,16.864,16.864,0,0,0,1.318-2.664,9.846,9.846,0,0,0,.59-2.131,2.111,2.111,0,0,0-.016-.281.314.314,0,0,0-.1-.2.6.6,0,0,1-.125-.083c-.047-.038-.1-.075-.154-.113s-.111-.075-.166-.113-.123-.083-.2-.139c-.262.017-.522.036-.786.055s-.515.047-.756.083c-.264.019-.524.038-.784.055l-.758.057a4.685,4.685,0,0,1-1.249,0,1.385,1.385,0,0,1-.714-.251.964.964,0,0,1-.35-.366.72.72,0,0,1-.042-.477l.2-1.4c.839.151,1.6.253,2.284.309s1.323.083,1.921.083c.241.021.486.028.73.028s.494-.007.756-.028c.243,0,.494-.009.758-.028l.784-.055c.317-.019.676-.038,1.08-.055s.8-.047,1.19-.085c.375-.017.714-.042,1.023-.069s.539-.052.688-.071a13.83,13.83,0,0,1,1.415-.069,1.723,1.723,0,0,1,.77.21l.843.534a1.178,1.178,0,0,1,.475.517,1.191,1.191,0,0,1-.194.714A1.223,1.223,0,0,1,69.211,8a1.054,1.054,0,0,1-.688-.042c-.241-.057-.486-.116-.728-.182a3.95,3.95,0,0,0-.73-.127c-.616-.017-1.238-.038-1.864-.055s-1.247-.028-1.864-.028a2.606,2.606,0,0,1,.239.21,1.216,1.216,0,0,1,.154.182,1.111,1.111,0,0,1,.071.295c.007.1.012.219.012.35a4.21,4.21,0,0,1-.1.461c-.049.179-.1.38-.154.6q-.14.479-.336,1M71.859,2.8a1.58,1.58,0,0,0-.224-.91,2.7,2.7,0,0,0-.73-.659.376.376,0,0,1-.194-.35,1.022,1.022,0,0,1,.111-.463,1.006,1.006,0,0,1,.364-.35.558.558,0,0,1,.5-.014L73.6.893a1.729,1.729,0,0,1,.8.562,1.772,1.772,0,0,1,.125.758V13.651l.59-.028a5.061,5.061,0,0,0,.784-.057,8.676,8.676,0,0,0,1.039-.251c.186-.055.34-.108.461-.154a.984.984,0,0,1,.352-.069.818.818,0,0,1,.336.012,2.113,2.113,0,0,1,.39.156l1.432.869a.534.534,0,0,1,.265.336.444.444,0,0,1-.125.392l-.534.617a.631.631,0,0,1-.475.251,1.387,1.387,0,0,1-.564-.055,3.831,3.831,0,0,0-.461-.127,2.908,2.908,0,0,0-.548-.042H74.523v8.074a2.645,2.645,0,0,1-.239,1.094,5.055,5.055,0,0,1-.574.982,8.766,8.766,0,0,1-.671.8,4.383,4.383,0,0,1-.534.491.483.483,0,0,1-.42.127c-.151-.028-.225-.108-.225-.239Z" transform="translate(39.643 0.001)"/>
          <path id="패스_22723" data-name="패스 22723" d="M76.7,16.713q-.278.029-.63.042c-.234.01-.472.014-.714.014s-.472-.009-.688-.028a2.948,2.948,0,0,1-.517-.083.511.511,0,0,1-.364-.283.793.793,0,0,1-.029-.56l.309-1.6a9.9,9.9,0,0,0,1.486.21c.6.047,1.207.08,1.823.1.6.038,1.145.055,1.639.055H82.88q1.3,0,2.48-.028v-.281a1.757,1.757,0,0,0-.125-.786,1.146,1.146,0,0,0-.659-.392.755.755,0,0,1-.435-.295.763.763,0,0,1-.127-.6l.085-.73,2.86.281c.487.055.782.206.883.449a1.624,1.624,0,0,1,.154.616v1.654q1.207-.026,2.173-.069c.645-.028,1.259-.061,1.836-.1s1.141-.078,1.682-.127,1.113-.1,1.712-.153c.3-.019.571-.038.812-.057s.468-.028.673-.028a2.553,2.553,0,0,1,.491.042,1.13,1.13,0,0,1,.35.127l1.15.926a.916.916,0,0,1,.352.574.968.968,0,0,1-.128.519,1.232,1.232,0,0,1-.376.477.464.464,0,0,1-.38.057l-.813-.142c-.43-.073-.794-.13-1.093-.168-.392-.017-.945-.036-1.654-.055s-1.505-.028-2.383-.028q-1.347,0-2.834.028l-2.887.055Zm5.048,9.644a6.6,6.6,0,0,1-.716-.042,2.136,2.136,0,0,1-.714-.21,1.47,1.47,0,0,1-.519-.491,1.663,1.663,0,0,1-.21-.912V21.983a4.287,4.287,0,0,0-.1-1.037.8.8,0,0,0-.548-.532,1.561,1.561,0,0,1-.5-.253.554.554,0,0,1-.166-.447V18.619l2.662.364a1.921,1.921,0,0,1,.742.267,1.039,1.039,0,0,1,.38.435,2.078,2.078,0,0,1,.139.616c.019.224.029.458.029.7v2.5a1.991,1.991,0,0,0,.085.673c.056.149.26.224.616.224h4.514a19.436,19.436,0,0,0,2.411-.139,13.077,13.077,0,0,0,1.738-.309,2.339,2.339,0,0,1,.548-.085,1.736,1.736,0,0,1,.576.14l1.148.449q.617.252.716.463a.988.988,0,0,1,.014.6,1.251,1.251,0,0,1-.309.673,1.474,1.474,0,0,1-.869.168ZM81.926,2.3A6.4,6.4,0,0,1,86.286.871a7.275,7.275,0,0,1,2.384.378,6.066,6.066,0,0,1,1.9,1.053,4.852,4.852,0,0,1,1.235,1.611,4.667,4.667,0,0,1,.449,2.032A4.724,4.724,0,0,1,91.8,8.063a4.84,4.84,0,0,1-1.276,1.613A5.38,5.38,0,0,1,88.641,10.7a7.657,7.657,0,0,1-2.355.35,6.436,6.436,0,0,1-4.36-1.417,4.636,4.636,0,0,1-1.639-3.687A4.614,4.614,0,0,1,81.926,2.3M83.8,3.689a2.943,2.943,0,0,0-.883,2.256,2.921,2.921,0,0,0,.924,2.272,3.492,3.492,0,0,0,2.44.841,3.42,3.42,0,0,0,2.454-.841,2.985,2.985,0,0,0,.883-2.272,2.936,2.936,0,0,0-.883-2.256,3.453,3.453,0,0,0-2.454-.827,3.491,3.491,0,0,0-2.482.827" transform="translate(54.121 0.64)"/>
          <path id="패스_22724" data-name="패스 22724" d="M92.971,18.5a.24.24,0,0,0,.1.21.312.312,0,0,0,.18.069,32.315,32.315,0,0,0,5.624-.756A22.908,22.908,0,0,0,103.2,16.6a.639.639,0,0,1,.323-.043,1.171,1.171,0,0,1,.491.182,1.821,1.821,0,0,1,.588.673q.2.393-.335.645a22.234,22.234,0,0,1-5.79,2.131,51.589,51.589,0,0,1-5.454.841,5.245,5.245,0,0,1-.657.028h-.659a1.3,1.3,0,0,1-.855-.447,1.262,1.262,0,0,1-.463-.871V14.856c0-.187-.005-.35-.016-.491s-.024-.265-.042-.378a1.01,1.01,0,0,0-.168-.309,1.1,1.1,0,0,0-.309-.253.988.988,0,0,1-.449-.35.926.926,0,0,1-.166-.546V11.324l2.3.14,6.364-.113a.582.582,0,0,0,.449-.154.824.824,0,0,0,.14-.546l.055-3.2a.743.743,0,0,0-.083-.449.808.808,0,0,0-.477-.085l-5.074.142c-.225,0-.454.009-.687.028s-.454.028-.659.028c-.168.017-.479.028-.926.028a1.893,1.893,0,0,1-.982-.2.383.383,0,0,1-.21-.239.95.95,0,0,1-.014-.378l.2-1.542a15.347,15.347,0,0,0,2.664.267q1.6.042,3.224-.016l4.795-.14a3.546,3.546,0,0,1,.447.029.713.713,0,0,1,.364.14.786.786,0,0,1,.154.293,1.814,1.814,0,0,1,.043.463l-.394,6.5a1.111,1.111,0,0,1-.323.742,1.358,1.358,0,0,1-.91.239l-6.729.083ZM105.56,2.8a1.58,1.58,0,0,0-.224-.91,2.7,2.7,0,0,0-.73-.659.377.377,0,0,1-.2-.35,1,1,0,0,1,.113-.463.993.993,0,0,1,.364-.35.558.558,0,0,1,.5-.014L107.3.893a1.72,1.72,0,0,1,.8.562,1.742,1.742,0,0,1,.127.758V13.566l.336-.028a5.076,5.076,0,0,0,.786-.055,8.909,8.909,0,0,0,1.037-.253c.187-.055.342-.106.463-.154a.975.975,0,0,1,.35-.069.839.839,0,0,1,.335.014,1.918,1.918,0,0,1,.394.154l1.431.869a.538.538,0,0,1,.265.336.444.444,0,0,1-.127.394l-.531.616a.639.639,0,0,1-.479.253,1.373,1.373,0,0,1-.56-.055,3.629,3.629,0,0,0-.463-.127,2.881,2.881,0,0,0-.546-.043h-2.691v8.159a2.645,2.645,0,0,1-.239,1.094,5.145,5.145,0,0,1-.574.982,8.774,8.774,0,0,1-.673.8,4.272,4.272,0,0,1-.532.491.483.483,0,0,1-.42.127c-.151-.028-.225-.108-.225-.239Z" transform="translate(65.52 0.001)"/>
          <path id="패스_22725" data-name="패스 22725" d="M104.594,7.006a4.836,4.836,0,0,1,1.134-1.793,5.433,5.433,0,0,1,1.894-1.249A6.973,6.973,0,0,1,110.27,3.5a6.646,6.646,0,0,1,2.553.463,5.749,5.749,0,0,1,1.9,1.249,5.19,5.19,0,0,1,1.165,1.793,5.879,5.879,0,0,1,.408,2.159,5.807,5.807,0,0,1-.435,2.27,5.331,5.331,0,0,1-1.219,1.795,5.489,5.489,0,0,1-1.894,1.178,6.936,6.936,0,0,1-2.482.421,6,6,0,0,1-4.443-1.613,5.489,5.489,0,0,1-1.613-4.051,6.234,6.234,0,0,1,.38-2.159m3.125-.477a3.959,3.959,0,0,0-.869,2.636,3.917,3.917,0,0,0,.869,2.678,3.2,3.2,0,0,0,2.551,1,3.15,3.15,0,0,0,2.567-1,4.064,4.064,0,0,0,.825-2.678,4.108,4.108,0,0,0-.825-2.636,3.087,3.087,0,0,0-2.567-1.037,3.139,3.139,0,0,0-2.551,1.037m4.205,20.188a6.544,6.544,0,0,1-.714-.042,2.165,2.165,0,0,1-.714-.21,1.452,1.452,0,0,1-.52-.493,1.676,1.676,0,0,1-.21-.91v-4.15a4.2,4.2,0,0,0-.1-1.037.807.807,0,0,0-.548-.532,1.618,1.618,0,0,1-.5-.251.561.561,0,0,1-.168-.449V17.577l2.691.335a1.931,1.931,0,0,1,.744.267,1.052,1.052,0,0,1,.38.435,2.146,2.146,0,0,1,.139.616c.017.225.028.458.028.7v3.926a2,2,0,0,0,.085.673c.055.149.262.224.617.224h4.148a19.828,19.828,0,0,0,2.412-.139,13.487,13.487,0,0,0,1.738-.31,2.39,2.39,0,0,1,.546-.083,1.709,1.709,0,0,1,.574.14l1.15.447c.413.17.65.323.714.463a.979.979,0,0,1,.016.6,1.258,1.258,0,0,1-.309.673,1.474,1.474,0,0,1-.869.168ZM121.12,2.8a1.58,1.58,0,0,0-.224-.91,2.7,2.7,0,0,0-.73-.659.377.377,0,0,1-.2-.35,1,1,0,0,1,.113-.463.993.993,0,0,1,.364-.35.558.558,0,0,1,.5-.014l1.908.839a1.72,1.72,0,0,1,.8.562,1.742,1.742,0,0,1,.127.758V17.3a2.637,2.637,0,0,1-.239,1.093,5.042,5.042,0,0,1-.574.982,8.573,8.573,0,0,1-.673.8,4.27,4.27,0,0,1-.532.491.488.488,0,0,1-.42.127c-.151-.029-.225-.108-.225-.239Z" transform="translate(76.511 0.001)"/>
          <path id="패스_22726" data-name="패스 22726" d="M136.526,24.35a1.841,1.841,0,0,1-.153.659c-.1.251-.22.508-.352.77-.13.243-.262.473-.392.688s-.224.359-.279.434a.749.749,0,0,1-.38.238,1.231,1.231,0,0,1-.491.043.853.853,0,0,1-.408-.168.438.438,0,0,1-.18-.364V19.527a2.663,2.663,0,0,0-.2-1.15,1.987,1.987,0,0,0-.5-.645.338.338,0,0,1-.1-.069.129.129,0,0,1-.042-.1l-7.852.281q-.278.029-.63.042c-.234.01-.472.014-.714.014s-.473-.009-.688-.028a2.947,2.947,0,0,1-.517-.083.513.513,0,0,1-.364-.281.8.8,0,0,1-.029-.562l.309-1.6a9.867,9.867,0,0,0,1.486.21q.9.07,1.823.1c.6.038,1.145.055,1.639.055h1.025q2.016,0,3.657-.014t3.042-.069q1.514-.029,2.693-.085t2.157-.113c.656-.017,1.285-.05,1.894-.1s1.249-.108,1.92-.182c.3-.019.572-.038.813-.055s.468-.029.673-.029a2.411,2.411,0,0,1,.491.043,1.049,1.049,0,0,1,.35.127l1.15.924a.9.9,0,0,1,.35.574.96.96,0,0,1-.127.52,1.222,1.222,0,0,1-.378.475.453.453,0,0,1-.378.057l-.813-.14q-.645-.112-1.092-.168-.562-.029-1.571-.057t-2.242-.028c-.843,0-1.729.01-2.664.028l-2.747.057a1.532,1.532,0,0,1,.7.841,3.69,3.69,0,0,1,.111.9Zm-.182-16.837a1.88,1.88,0,0,1-.154.239,1.011,1.011,0,0,1-.14.251,1.44,1.44,0,0,0-.139.225l3.812,1.934a2.5,2.5,0,0,0,.394.182,4.141,4.141,0,0,0,.42.127c.13.038.271.075.421.113a3.65,3.65,0,0,0,.449.083,5.008,5.008,0,0,1,.883.35,1.708,1.708,0,0,1,.659.6l.532.812a1.045,1.045,0,0,1,.21.645,1.066,1.066,0,0,1-.21.449.9.9,0,0,1-.617.364,1.964,1.964,0,0,1-.841-.166l-7.205-4.179a12.789,12.789,0,0,1-1.949,1.7,22.2,22.2,0,0,1-2.058,1.3,20.1,20.1,0,0,1-1.866.926q-.856.364-1.36.532a3.469,3.469,0,0,1-.491.127.821.821,0,0,1-.406-.014,2.344,2.344,0,0,1-.6-.182c-.179-.085-.265-.277-.265-.576A.691.691,0,0,1,126,12.9a1.051,1.051,0,0,1,.38-.293,18.218,18.218,0,0,0,1.779-.827,19.911,19.911,0,0,0,2.147-1.3,16.244,16.244,0,0,0,2.019-1.641,8.455,8.455,0,0,0,1.514-1.892.86.86,0,0,0,.026-.224.3.3,0,0,0-.083-.225l-1.093-.813-3.311.253a4.238,4.238,0,0,1-1.19,0,1.254,1.254,0,0,1-.659-.253.961.961,0,0,1-.35-.364.73.73,0,0,1-.043-.477l.224-1.4a19.734,19.734,0,0,0,2.034.321c.513.049,1.061.071,1.641.071.43.019.867.024,1.316.014s.9-.023,1.347-.042V2.508a1.442,1.442,0,0,0-.14-.728,2.62,2.62,0,0,0-.449-.5.369.369,0,0,1-.125-.336.936.936,0,0,1,.125-.421,1.38,1.38,0,0,1,.323-.364.411.411,0,0,1,.378-.083l1.262.392c.579.187.921.392,1.021.617a2.24,2.24,0,0,1,.154.924V3.686l2.1-.2a4.691,4.691,0,0,0,.548-.028,3.291,3.291,0,0,1,.376-.028c.114-.019.2-.033.269-.042a.965.965,0,0,1,.154-.014q.362,0,.63-.016c.177-.009.331-.014.463-.014a.892.892,0,0,1,.336.057c.094.036.2.083.309.139l.7.449a2.007,2.007,0,0,1,.687.617c.064.149.014.373-.154.673a1.253,1.253,0,0,1-.463.574,1.078,1.078,0,0,1-.8.014,3.354,3.354,0,0,1-.366-.069c-.111-.028-.234-.061-.364-.1l-.35-.057c-.121-.017-.239-.036-.35-.055-.262,0-.5-.01-.728-.029s-.449-.028-.675-.028c-.224-.017-.447-.031-.673-.042s-.456-.014-.7-.014c-.2,0-.406.005-.6.014s-.4.014-.6.014a1.625,1.625,0,0,1,.617.631,1.213,1.213,0,0,1-.113,1.108c-.055.094-.108.182-.154.265" transform="translate(89.73 0.04)"/>
          <path id="패스_22727" data-name="패스 22727" d="M140.074,21.994c-.186.017-.4.031-.629.042s-.473.014-.715.014-.473-.01-.688-.028a3.121,3.121,0,0,1-.518-.085.512.512,0,0,1-.364-.281.785.785,0,0,1-.028-.56l.307-1.6a10.158,10.158,0,0,0,1.488.21q.9.07,1.823.1c.6.038,1.145.057,1.639.057h3.742q1.264,0,2.384-.029V17.814a1.715,1.715,0,0,0-.127-.784,1.125,1.125,0,0,0-.659-.394.592.592,0,0,1-.394-.293.894.894,0,0,1-.081-.6l.081-.841,2.776.281c.486.055.78.206.884.447a1.691,1.691,0,0,1,.154.617v3.5q1.262-.029,2.27-.069c.673-.028,1.3-.062,1.878-.1.6-.036,1.174-.08,1.724-.127s1.138-.1,1.753-.154c.3-.017.574-.042.827-.069a6.163,6.163,0,0,1,.659-.043,2.542,2.542,0,0,1,.491.043.8.8,0,0,1,.35.154l1.15.924a.915.915,0,0,1,.35.576.955.955,0,0,1-.127.519,1.247,1.247,0,0,1-.378.477.462.462,0,0,1-.38.055l-.812-.14q-.645-.112-1.092-.168c-.394-.019-.945-.036-1.654-.055s-1.505-.028-2.383-.028q-1.347,0-2.834.028t-2.887.055Zm16.738-9.113a1.689,1.689,0,0,1-.18.827q-.185.323-.829.323l-10.906.083a1.442,1.442,0,0,1-.111.59,1.166,1.166,0,0,1-.309.42,1.956,1.956,0,0,1-.73.253,1.288,1.288,0,0,1-.813-.085.821.821,0,0,1-.279-.154.489.489,0,0,1-.2-.35,1.451,1.451,0,0,1-.042-.224,2.036,2.036,0,0,0-.043-.224,1.988,1.988,0,0,0-.014-.225,1.614,1.614,0,0,1-.014-.224l-.477-9.42-.5-.982a.439.439,0,0,1,.055-.546,1.935,1.935,0,0,1,.645-.52,1.576,1.576,0,0,1,.843-.224.867.867,0,0,1,.56.224l.7.813L155.832,3.1a2.381,2.381,0,0,1,.434.042.837.837,0,0,1,.35.125.643.643,0,0,1,.14.253,1.443,1.443,0,0,1,.055.449Zm-2.579-7.318a.739.739,0,0,0-.085-.434c-.056-.066-.215-.1-.475-.1l-8.523.113c-.3,0-.473.055-.518.166a1.053,1.053,0,0,0-.043.477l.224,6.422,8.832-.14a.614.614,0,0,0,.449-.14.757.757,0,0,0,.14-.532Z" transform="translate(100.651 1.612)"/>
          <path id="패스_22728" data-name="패스 22728" d="M156.164,10.287a.551.551,0,0,1-.113-.5l.055-1.009,2.58.168c.449.055.725.206.827.447a1.657,1.657,0,0,1,.154.617V14.8q1.849-.169,3.911-.519a24.942,24.942,0,0,0,3.8-.94.518.518,0,0,1,.309.071c.149.064.279.125.392.182a1.513,1.513,0,0,1,.59.7c.111.281.066.458-.14.532a19.82,19.82,0,0,1-2.567.827q-1.386.351-2.761.631-1.345.252-2.608.434c-.841.123-1.569.21-2.185.267-.281.038-.638.069-1.067.1s-.871.061-1.318.1l-1.36.055a11.21,11.21,0,0,1-1.136,0c-.168,0-.378-.009-.63-.028a2.134,2.134,0,0,1-.744-.2.383.383,0,0,1-.239-.238,1.028,1.028,0,0,1-.012-.52l.224-1.373a11.606,11.606,0,0,0,2.27.21q1.347.016,2.749-.069V11.688a2.645,2.645,0,0,0-.085-.786.716.716,0,0,0-.5-.392.827.827,0,0,1-.392-.224M165.641,6.6q-.14,1.08-.309,1.977c-.13.616-.271,1.2-.42,1.738s-.31,1.075-.479,1.6a1.125,1.125,0,0,1-.574.7,1.212,1.212,0,0,1-.8.111,1.081,1.081,0,0,1-.687-.35.8.8,0,0,1-.154-.77c.075-.411.16-.832.251-1.262s.179-.888.253-1.373.146-1.014.21-1.583.116-1.21.154-1.921q-1.4.083-2.915.14t-2.8.085c-.879.017-1.63.017-2.258,0a3.193,3.193,0,0,1-1.19-.17.574.574,0,0,1-.295-.265.8.8,0,0,1-.014-.546l.309-1.514a11.71,11.71,0,0,0,2.045.364q1.012.083,1.514.083c.5,0,.992-.005,1.458-.014s1-.033,1.6-.069l3.448-.253a.2.2,0,0,0,.071-.014.332.332,0,0,1,.1-.014,2.481,2.481,0,0,1,.784.154,2.956,2.956,0,0,1,.73.35.817.817,0,0,1,.139.182.365.365,0,0,1,.055.182q-.083,1.373-.222,2.454M160.65,26.744a6.544,6.544,0,0,1-.714-.042,2.122,2.122,0,0,1-.716-.21A1.439,1.439,0,0,1,158.7,26a1.662,1.662,0,0,1-.212-.912V22.313a4.185,4.185,0,0,0-.1-1.037.8.8,0,0,0-.546-.532,1.582,1.582,0,0,1-.5-.251.551.551,0,0,1-.168-.449V18.951l2.691.364a1.894,1.894,0,0,1,.742.265,1.048,1.048,0,0,1,.38.435,2.2,2.2,0,0,1,.14.617c.017.224.028.458.028.7v2.551a2.052,2.052,0,0,0,.083.673c.057.149.262.224.617.224h3.9a19.828,19.828,0,0,0,2.412-.139,13.479,13.479,0,0,0,1.738-.309,2.314,2.314,0,0,1,.546-.085,1.736,1.736,0,0,1,.576.14l1.148.449q.617.252.716.463a.988.988,0,0,1,.014.6,1.239,1.239,0,0,1-.309.673,1.474,1.474,0,0,1-.869.168ZM169.51,2.8a1.579,1.579,0,0,0-.225-.91,2.687,2.687,0,0,0-.728-.659.374.374,0,0,1-.2-.35,1.022,1.022,0,0,1,.111-.463,1.006,1.006,0,0,1,.364-.35.559.559,0,0,1,.5-.014l1.908.839a1.728,1.728,0,0,1,.8.562,1.745,1.745,0,0,1,.125.758v9.028l.479-.029a5.068,5.068,0,0,0,.784-.055,8.744,8.744,0,0,0,1.037-.253c.187-.055.342-.108.463-.154a1.014,1.014,0,0,1,.35-.069.846.846,0,0,1,.336.014,2,2,0,0,1,.394.154l1.429.869a.541.541,0,0,1,.267.336.449.449,0,0,1-.127.394l-.532.616a.639.639,0,0,1-.477.253,1.367,1.367,0,0,1-.56-.055,3.73,3.73,0,0,0-.465-.127,2.743,2.743,0,0,0-.545-.042h-2.834V17.52a2.67,2.67,0,0,1-.238,1.094,5.059,5.059,0,0,1-.576.982,8.533,8.533,0,0,1-.671.8,4.013,4.013,0,0,1-.534.491.483.483,0,0,1-.42.127q-.224-.042-.224-.239Z" transform="translate(111.504 0.001)"/>
        </g>
      </g>
    </g>
    <g id="구성_요소_1_1" data-name="구성 요소 1 – 1" transform="translate(469 358)">
      <text id="_평화와_인권_화해와_상생_제주4·3의_가치를_인류_보편적_가치로_승화시키고_미래세대로_전승시켜_나가겠습니다._과거와_현재를_이어주는_4·3_참배에_많은_참여를_부탁_드립니다._4·3_기록물은_유네스코_세계기록_유산입니다." data-name="&quot;평화와 인권, 화해와 상생&quot; 제주4·3의 가치를 인류 보편적 가치로 승화시키고 미래세대로 전승시켜
나가겠습니다. 과거와 현재를 이어주는 4·3 참배에 많은 참여를 부탁 드립니다.
4·3 기록물은 유네스코 세계기록 유산입니다." transform="translate(0 14)" font-size="17" font-family="Helvetica"><tspan x="0" y="0">&quot;</tspan><tspan y="0" font-family="AppleSDGothicNeo-Regular, Apple SD Gothic Neo">평화와</tspan><tspan y="0"> </tspan><tspan y="0" font-family="AppleSDGothicNeo-Regular, Apple SD Gothic Neo">인권</tspan><tspan y="0">, </tspan><tspan y="0" font-family="AppleSDGothicNeo-Regular, Apple SD Gothic Neo">화해와</tspan><tspan y="0"> </tspan><tspan y="0" font-family="AppleSDGothicNeo-Regular, Apple SD Gothic Neo">상생</tspan><tspan y="0">&quot; </tspan><tspan y="0" font-family="AppleSDGothicNeo-Regular, Apple SD Gothic Neo">제주</tspan><tspan y="0">4·3</tspan><tspan y="0" font-family="AppleSDGothicNeo-Regular, Apple SD Gothic Neo">의</tspan><tspan y="0"> </tspan><tspan y="0" font-family="AppleSDGothicNeo-Regular, Apple SD Gothic Neo">가치를</tspan><tspan y="0"> </tspan><tspan y="0" font-family="AppleSDGothicNeo-Regular, Apple SD Gothic Neo">인류</tspan><tspan y="0"> </tspan><tspan y="0" font-family="AppleSDGothicNeo-Regular, Apple SD Gothic Neo">보편적</tspan><tspan y="0"> </tspan><tspan y="0" font-family="AppleSDGothicNeo-Regular, Apple SD Gothic Neo">가치로</tspan><tspan y="0"> </tspan><tspan y="0" font-family="AppleSDGothicNeo-Regular, Apple SD Gothic Neo">승화시키고</tspan><tspan y="0"> </tspan><tspan y="0" font-family="AppleSDGothicNeo-Regular, Apple SD Gothic Neo">미래세대로</tspan><tspan y="0"> </tspan><tspan y="0" font-family="AppleSDGothicNeo-Regular, Apple SD Gothic Neo">전승시켜</tspan><tspan y="0"></tspan><tspan font-family="AppleSDGothicNeo-Regular, Apple SD Gothic Neo"><tspan x="0" y="27">나가겠습니다</tspan><tspan y="27" font-family="Helvetica">. </tspan><tspan y="27">과거와</tspan><tspan y="27" font-family="Helvetica"> </tspan><tspan y="27">현재를</tspan><tspan y="27" font-family="Helvetica"> </tspan><tspan y="27">이어주는</tspan><tspan y="27" xml:space="preserve" font-family="Helvetica"> 4·3 </tspan><tspan y="27">참배에</tspan><tspan y="27" font-family="Helvetica"> </tspan><tspan y="27">많은</tspan><tspan y="27" font-family="Helvetica"> </tspan><tspan y="27">참여를</tspan><tspan y="27" font-family="Helvetica"> </tspan><tspan y="27">부탁</tspan><tspan y="27" font-family="Helvetica"> </tspan><tspan y="27">드립니다</tspan><tspan y="27" font-family="Helvetica">.</tspan></tspan><tspan x="0" y="54">4·3 </tspan><tspan y="54" font-family="AppleSDGothicNeo-Regular, Apple SD Gothic Neo">기록물은</tspan><tspan y="54"> </tspan><tspan y="54" font-family="AppleSDGothicNeo-Regular, Apple SD Gothic Neo">유네스코</tspan><tspan y="54"> </tspan><tspan y="54" font-family="AppleSDGothicNeo-Regular, Apple SD Gothic Neo">세계기록</tspan><tspan y="54"> </tspan><tspan y="54" font-family="AppleSDGothicNeo-Regular, Apple SD Gothic Neo">유산입니다</tspan><tspan y="54">.</tspan></text>
    </g>
  </g>
</svg>
