<svg xmlns="http://www.w3.org/2000/svg" xmlns:xlink="http://www.w3.org/1999/xlink" width="301" height="118.666" viewBox="0 0 301 118.666">
  <defs>
    <clipPath id="clip-path">
      <rect id="사각형_1475" data-name="사각형 1475" width="234.336" height="22.397" fill="none"/>
    </clipPath>
  </defs>
  <g id="그룹_1870" data-name="그룹 1870" transform="translate(-32 -160.334)">
    <g id="그룹_1787" data-name="그룹 1787" transform="translate(35.801 160.334)">
      <path id="패스_22717" data-name="패스 22717" d="M6.609,5.609v7.02H2.134Zm.637-3.816L0,12.812V14.2H6.609v3.067H8.655V14.2H10.79V12.629H8.655V1.793Z" transform="translate(0 0.727)"/>
      <g id="그룹_1786" data-name="그룹 1786" transform="translate(0 0)">
        <g id="그룹_1785" data-name="그룹 1785" clip-path="url(#clip-path)">
          <path id="패스_22718" data-name="패스 22718" d="M11.43,9.281a1.316,1.316,0,0,1-.92.341A1.33,1.33,0,0,1,9.6,9.281a1.206,1.206,0,0,1-.385-.954A1.214,1.214,0,0,1,9.6,7.384a1.308,1.308,0,0,1,.909-.353,1.3,1.3,0,0,1,.92.353,1.232,1.232,0,0,1,.375.943,1.224,1.224,0,0,1-.375.954" transform="translate(3.733 2.849)"/>
          <path id="패스_22719" data-name="패스 22719" d="M21.017,16.213a5.622,5.622,0,0,1-4.01,1.284,17.433,17.433,0,0,1-2.237-.148,16.57,16.57,0,0,1-2.08-.4l-.112-2.907h1.363l.523,1.613a3.932,3.932,0,0,0,1.079.319,6.338,6.338,0,0,0,1.283.09,3.509,3.509,0,0,0,2.522-.84,3.046,3.046,0,0,0,.818-2.25,2.876,2.876,0,0,0-.3-1.352,2.92,2.92,0,0,0-.75-.919,2.71,2.71,0,0,0-1-.511,3.987,3.987,0,0,0-1.044-.148l-1.227.045-.455-.454.523-1.114,1.113-.067a2.373,2.373,0,0,0,.887-.194,3.028,3.028,0,0,0,.887-.556,2.991,2.991,0,0,0,.659-.863,2.591,2.591,0,0,0,.273-1.2,2.234,2.234,0,0,0-.717-1.874,3.251,3.251,0,0,0-2.033-.556,5.231,5.231,0,0,0-1.044.1,3.523,3.523,0,0,0-.864.284L14.645,5H13.259V2.526a13.771,13.771,0,0,1,1.828-.545,8.728,8.728,0,0,1,1.9-.2,5.828,5.828,0,0,1,3.7.988,3.474,3.474,0,0,1,1.227,2.873,3.112,3.112,0,0,1-.818,2.08,4.923,4.923,0,0,1-2.044,1.4,4.812,4.812,0,0,1,2.339,1.352,3.532,3.532,0,0,1,.977,2.556,4.223,4.223,0,0,1-1.352,3.191" transform="translate(5.095 0.72)"/>
          <path id="패스_22720" data-name="패스 22720" d="M36.454,16.682q-1.159.285-2.318.511-1.18.2-2.248.353t-1.841.237c-.243.031-.531.06-.863.091s-.681.06-1.045.091l-1.068.045a8.838,8.838,0,0,1-.908,0c-.169,0-.36-.007-.58-.022a1.913,1.913,0,0,1-.67-.181.561.561,0,0,1-.34-.3.789.789,0,0,1-.024-.5l.159-.932a9.04,9.04,0,0,0,1.3.181q.66.046,1.3.046c.424,0,.844-.008,1.262-.022s.85-.046,1.3-.091c.517-.046,1.106-.107,1.773-.183s1.347-.173,2.044-.3,1.385-.257,2.067-.409a15.047,15.047,0,0,0,1.839-.523.572.572,0,0,1,.444.058c.174.083.322.156.443.216a.925.925,0,0,1,.42.533q.08.308-.329.443a17.6,17.6,0,0,1-2.112.648M30.286,5.949l-1.012.045c-.348.017-.688.031-1.021.046s-.674.031-1.023.045a5.348,5.348,0,0,1-1,0,1.807,1.807,0,0,1-.659-.181.508.508,0,0,1-.306-.306.729.729,0,0,1-.034-.422l.159-1.066a17.308,17.308,0,0,0,1.85.261c.507.037,1.012.056,1.51.056.274.015.549.02.83.011s.565-.018.851-.034v-1.3a1.646,1.646,0,0,0-.08-.624,1.686,1.686,0,0,0-.42-.466.314.314,0,0,1-.114-.261.645.645,0,0,1,.093-.329.965.965,0,0,1,.17-.273.223.223,0,0,1,.215-.091l1.546.476c.363.122.579.261.648.422a1.717,1.717,0,0,1,.1.648v1.68q.839-.023,1.567-.08a8.773,8.773,0,0,0,.932-.1A6.475,6.475,0,0,1,36.2,4.018a1.439,1.439,0,0,1,.568.183l.614.363c.288.181.443.337.466.465a.935.935,0,0,1-.17.556,1.591,1.591,0,0,1-.364.455.608.608,0,0,1-.523,0,10.052,10.052,0,0,0-1.26-.2,12.283,12.283,0,0,0-1.262-.069c-.226,0-.454,0-.68.011s-.462.02-.705.034l-.749.046c-.259.014-.524.022-.8.022q-.546.044-1.057.067M28.264,7.937a5,5,0,0,1,3.329-1.079A4.844,4.844,0,0,1,34.84,7.937a3.578,3.578,0,0,1,1.273,2.873,3.621,3.621,0,0,1-.341,1.579,3.84,3.84,0,0,1-.932,1.238,4.128,4.128,0,0,1-1.43.807,5.672,5.672,0,0,1-1.817.284,4.927,4.927,0,0,1-3.329-1.1,3.536,3.536,0,0,1-1.283-2.806,3.565,3.565,0,0,1,1.283-2.873m1.454,1.215a2.19,2.19,0,0,0-.648,1.636,2.181,2.181,0,0,0,.648,1.647,2.59,2.59,0,0,0,1.874.625,2.451,2.451,0,0,0,1.794-.625,2.209,2.209,0,0,0,.635-1.647,2.218,2.218,0,0,0-.635-1.636,2.427,2.427,0,0,0-1.794-.637,2.564,2.564,0,0,0-1.874.637m9.711-6.883a1.28,1.28,0,0,0-.181-.738A2.186,2.186,0,0,0,38.656,1,.3.3,0,0,1,38.5.714a.828.828,0,0,1,.09-.375.815.815,0,0,1,.3-.284.452.452,0,0,1,.409-.011l1.546.68a1.4,1.4,0,0,1,.648.455,1.436,1.436,0,0,1,.1.614V19.1a2.143,2.143,0,0,1-.194.887,4.1,4.1,0,0,1-.465.8,7.1,7.1,0,0,1-.544.646,3.552,3.552,0,0,1-.433.4.391.391,0,0,1-.34.1c-.122-.022-.183-.087-.183-.194Z" transform="translate(9.933 0.001)"/>
          <path id="패스_22721" data-name="패스 22721" d="M45.552,6c-.136.378-.281.735-.431,1.068l1.544,1.363a1.818,1.818,0,0,0,.34.306c.121.084.243.163.364.239l.34.192c.122.069.243.133.364.194s.223.135.308.181a1.792,1.792,0,0,1,.215.136.9.9,0,0,1,.16.226,2.425,2.425,0,0,1,.135.364l.228.864a1.641,1.641,0,0,1,.091.67c-.031.1-.152.192-.364.284a.7.7,0,0,1-.454.125,1.235,1.235,0,0,1-.5-.33L44.371,8.4a11.7,11.7,0,0,1-1.953,2.442,21.739,21.739,0,0,1-1.8,1.51,2.012,2.012,0,0,1-.363.181,1.055,1.055,0,0,1-.364.091.721.721,0,0,1-.476-.171.8.8,0,0,1-.273-.4.534.534,0,0,1,.022-.341.758.758,0,0,1,.136-.273,17.023,17.023,0,0,0,1.488-1.385A13.6,13.6,0,0,0,42.143,8.4,12.183,12.183,0,0,0,43.2,6.552a8.286,8.286,0,0,0,.625-1.942.584.584,0,0,0-.056-.33.99.99,0,0,0-.33-.351l-.431-.3a.268.268,0,0,1-.112-.25.8.8,0,0,1,.09-.364,1.09,1.09,0,0,1,.181-.319.241.241,0,0,1,.228-.112c.136.045.315.1.534.159s.436.128.648.2.434.152.624.228.344.136.465.181a.768.768,0,0,1,.353.489,1.807,1.807,0,0,1-.056.943q-.2.637-.409,1.2m1.124,10.528a3.922,3.922,0,0,1,.875-1.4,4.8,4.8,0,0,1,1.522-.965,5.7,5.7,0,0,1,2.181-.375,5.29,5.29,0,0,1,2.056.375,4.559,4.559,0,0,1,1.488.965,4.246,4.246,0,0,1,1.249,3,4.362,4.362,0,0,1-.3,1.568,3.861,3.861,0,0,1-.887,1.363,4.253,4.253,0,0,1-1.487.977,5.63,5.63,0,0,1-2.124.364,5.573,5.573,0,0,1-2.136-.375,4.817,4.817,0,0,1-1.522-.965,3.956,3.956,0,0,1-.909-1.374,4.275,4.275,0,0,1-.3-1.557,4.661,4.661,0,0,1,.284-1.6m2.511-.215a2.7,2.7,0,0,0-.637,1.772,2.773,2.773,0,0,0,.637,1.761,2.471,2.471,0,0,0,2.067.807,2.374,2.374,0,0,0,2.033-.807,2.887,2.887,0,0,0,.6-1.761,2.808,2.808,0,0,0-.6-1.772,2.429,2.429,0,0,0-2.033-.773,2.531,2.531,0,0,0-2.067.773m1.18-12.585a1.18,1.18,0,0,0-.205-.715,2.311,2.311,0,0,0-.613-.556.332.332,0,0,1-.17-.284.737.737,0,0,1,.08-.375.831.831,0,0,1,.284-.284.428.428,0,0,1,.4-.011l1.5.681a1.384,1.384,0,0,1,.646.454,1.416,1.416,0,0,1,.1.614v2.93h2.476V2.269a1.172,1.172,0,0,0-.2-.738A2.614,2.614,0,0,0,54.047,1a.33.33,0,0,1-.17-.284.743.743,0,0,1,.08-.375.831.831,0,0,1,.284-.284.428.428,0,0,1,.4-.011l1.5.681a1.376,1.376,0,0,1,.646.454,1.413,1.413,0,0,1,.1.614v9.2a2.378,2.378,0,0,1-.17.885,4,4,0,0,1-.422.8,4.56,4.56,0,0,1-.488.648,3.069,3.069,0,0,1-.422.4.391.391,0,0,1-.34.1c-.122-.024-.183-.087-.183-.194V7.745H52.389v2.294a2.388,2.388,0,0,1-.17.885,3.928,3.928,0,0,1-.42.8,4.482,4.482,0,0,1-.488.648,3.069,3.069,0,0,1-.422.4.386.386,0,0,1-.34.1c-.122-.022-.183-.086-.183-.192Z" transform="translate(15.85 0.001)"/>
          <path id="패스_22722" data-name="패스 22722" d="M61.474,8.641q-.16.419-.364.875l2.976,2.907a2.376,2.376,0,0,0,.545.443,5,5,0,0,0,.637.33c.135.09.249.163.34.215a1.231,1.231,0,0,1,.25.194,1.853,1.853,0,0,1,.171.26,2.005,2.005,0,0,1,.146.4l.205.863a1.225,1.225,0,0,1,0,.579.632.632,0,0,1-.34.329.877.877,0,0,1-.638.138,1.111,1.111,0,0,1-.544-.386l-4.453-4.908a21.521,21.521,0,0,1-2.044,2.875,14.233,14.233,0,0,1-2.635,2.465,3.079,3.079,0,0,1-.375.216.842.842,0,0,1-.353.079,1.483,1.483,0,0,1-.624-.1.756.756,0,0,1-.353-.42.456.456,0,0,1,.045-.386,1.052,1.052,0,0,1,.25-.34A14.131,14.131,0,0,0,56.6,13.172,16.061,16.061,0,0,0,58.27,10.9a13.664,13.664,0,0,0,1.068-2.158,7.978,7.978,0,0,0,.478-1.727,1.71,1.71,0,0,0-.013-.228.255.255,0,0,0-.08-.159.484.484,0,0,1-.1-.067c-.038-.031-.08-.06-.125-.091l-.135-.091c-.048-.03-.1-.067-.16-.112l-.636.045c-.212.015-.417.038-.613.067l-.635.045-.614.046a3.8,3.8,0,0,1-1.012,0,1.123,1.123,0,0,1-.579-.2.781.781,0,0,1-.284-.3.583.583,0,0,1-.034-.386l.159-1.135c.68.122,1.3.205,1.85.25s1.072.067,1.557.067c.2.017.393.022.592.022s.4-.006.613-.022c.2,0,.4-.007.614-.022l.635-.045c.257-.015.548-.031.875-.045s.646-.038.964-.069c.3-.014.579-.034.829-.056s.437-.042.558-.058a11.206,11.206,0,0,1,1.147-.056,1.4,1.4,0,0,1,.624.17l.683.433a.955.955,0,0,1,.385.419.965.965,0,0,1-.157.579.991.991,0,0,1-.4.466.854.854,0,0,1-.558-.034c-.2-.046-.393-.094-.59-.148a3.2,3.2,0,0,0-.592-.1c-.5-.014-1-.031-1.51-.045s-1.01-.022-1.51-.022a2.112,2.112,0,0,1,.194.17.985.985,0,0,1,.125.148.9.9,0,0,1,.058.239c.006.083.01.177.01.284a3.41,3.41,0,0,1-.079.374c-.039.145-.08.308-.125.489q-.114.388-.273.807m7-6.372a1.28,1.28,0,0,0-.181-.738A2.186,2.186,0,0,0,67.7,1a.3.3,0,0,1-.157-.284.828.828,0,0,1,.09-.375.815.815,0,0,1,.3-.284.452.452,0,0,1,.409-.011l1.546.68a1.4,1.4,0,0,1,.648.455,1.436,1.436,0,0,1,.1.614v9.268l.478-.022a4.1,4.1,0,0,0,.635-.046,7.029,7.029,0,0,0,.842-.2c.15-.045.275-.087.374-.125a.8.8,0,0,1,.285-.056.663.663,0,0,1,.273.01,1.712,1.712,0,0,1,.316.126l1.161.7a.433.433,0,0,1,.215.273.36.36,0,0,1-.1.318l-.433.5a.511.511,0,0,1-.385.2,1.124,1.124,0,0,1-.457-.045,3.1,3.1,0,0,0-.374-.1,2.356,2.356,0,0,0-.444-.034H70.628V19.1a2.143,2.143,0,0,1-.194.887,4.1,4.1,0,0,1-.465.8,7.1,7.1,0,0,1-.544.646,3.552,3.552,0,0,1-.433.4.391.391,0,0,1-.34.1c-.122-.022-.183-.087-.183-.194Z" transform="translate(21.873 0.001)"/>
          <path id="패스_22723" data-name="패스 22723" d="M76.131,13.706q-.226.023-.51.034c-.19.008-.382.011-.579.011s-.382-.007-.558-.022a2.388,2.388,0,0,1-.419-.067.414.414,0,0,1-.3-.229.642.642,0,0,1-.024-.454L74,11.685a8.022,8.022,0,0,0,1.2.17c.485.038.978.065,1.477.08.485.031.927.045,1.328.045h3.136q1.056,0,2.009-.022v-.228a1.424,1.424,0,0,0-.1-.637.928.928,0,0,0-.534-.318.611.611,0,0,1-.353-.239.618.618,0,0,1-.1-.488l.069-.592,2.317.228c.395.045.634.167.715.364a1.316,1.316,0,0,1,.125.5v1.34q.978-.021,1.761-.056c.523-.022,1.02-.049,1.488-.08s.925-.063,1.363-.1.9-.079,1.387-.124c.24-.015.462-.031.658-.046s.379-.022.545-.022a2.068,2.068,0,0,1,.4.034.916.916,0,0,1,.284.1l.932.75a.742.742,0,0,1,.285.465.785.785,0,0,1-.1.42,1,1,0,0,1-.3.386.376.376,0,0,1-.308.046l-.659-.115c-.348-.059-.644-.105-.885-.136-.318-.014-.766-.03-1.34-.045s-1.22-.022-1.931-.022q-1.092,0-2.3.022l-2.339.045Zm4.09,7.814a5.347,5.347,0,0,1-.58-.034,1.731,1.731,0,0,1-.579-.17,1.191,1.191,0,0,1-.42-.4,1.347,1.347,0,0,1-.17-.739v-2.2a3.473,3.473,0,0,0-.079-.84.651.651,0,0,0-.444-.431,1.265,1.265,0,0,1-.409-.205.449.449,0,0,1-.135-.363v-.887l2.157.3a1.556,1.556,0,0,1,.6.216.842.842,0,0,1,.308.353,1.683,1.683,0,0,1,.112.5c.015.181.024.371.024.568V19.2a1.613,1.613,0,0,0,.069.545c.045.121.211.181.5.181h3.657a15.747,15.747,0,0,0,1.953-.112,10.6,10.6,0,0,0,1.408-.25,1.9,1.9,0,0,1,.444-.069,1.406,1.406,0,0,1,.466.114l.93.364q.5.2.58.375a.8.8,0,0,1,.011.488,1.013,1.013,0,0,1-.25.545,1.194,1.194,0,0,1-.7.136Zm.148-19.49A5.185,5.185,0,0,1,83.9.871a5.894,5.894,0,0,1,1.932.306,4.915,4.915,0,0,1,1.543.853,3.931,3.931,0,0,1,1,1.305,3.782,3.782,0,0,1,.364,1.647A3.828,3.828,0,0,1,88.365,6.7,3.921,3.921,0,0,1,87.331,8a4.359,4.359,0,0,1-1.522.829,6.2,6.2,0,0,1-1.908.284,5.215,5.215,0,0,1-3.532-1.148,3.756,3.756,0,0,1-1.328-2.987A3.738,3.738,0,0,1,80.368,2.03M81.89,3.154a2.384,2.384,0,0,0-.715,1.828,2.367,2.367,0,0,0,.749,1.841A2.829,2.829,0,0,0,83.9,7.5a2.771,2.771,0,0,0,1.988-.681A2.418,2.418,0,0,0,86.6,4.982a2.379,2.379,0,0,0-.715-1.828,2.8,2.8,0,0,0-1.988-.67,2.828,2.828,0,0,0-2.011.67" transform="translate(29.861 0.353)"/>
          <path id="패스_22724" data-name="패스 22724" d="M92.264,14.991a.194.194,0,0,0,.08.17.252.252,0,0,0,.146.056,26.183,26.183,0,0,0,4.557-.613,18.561,18.561,0,0,0,3.508-1.158.518.518,0,0,1,.261-.035.949.949,0,0,1,.4.148,1.476,1.476,0,0,1,.476.545q.158.318-.271.523a18.014,18.014,0,0,1-4.692,1.727,41.8,41.8,0,0,1-4.419.681,4.25,4.25,0,0,1-.533.022h-.534a1.049,1.049,0,0,1-.693-.363,1.022,1.022,0,0,1-.375-.705V12.037c0-.152,0-.284-.013-.4s-.02-.215-.034-.306a.818.818,0,0,0-.136-.25.89.89,0,0,0-.25-.205.8.8,0,0,1-.364-.284.75.75,0,0,1-.135-.443V9.175l1.862.114L96.261,9.2a.471.471,0,0,0,.364-.125.668.668,0,0,0,.114-.443l.045-2.59a.6.6,0,0,0-.067-.364.655.655,0,0,0-.386-.069l-4.111.115c-.183,0-.368.007-.556.022s-.368.022-.534.022c-.136.014-.388.022-.75.022a1.534,1.534,0,0,1-.8-.159.31.31,0,0,1-.17-.194.77.77,0,0,1-.011-.306l.159-1.249a12.434,12.434,0,0,0,2.158.216q1.294.034,2.612-.013l3.885-.114A2.873,2.873,0,0,1,98.578,4a.577.577,0,0,1,.3.114A.637.637,0,0,1,99,4.347a1.469,1.469,0,0,1,.035.375l-.319,5.27a.9.9,0,0,1-.261.6,1.1,1.1,0,0,1-.738.194l-5.452.067Zm10.2-12.722a1.28,1.28,0,0,0-.181-.738A2.186,2.186,0,0,0,101.691,1a.306.306,0,0,1-.159-.284.812.812,0,0,1,.091-.375.8.8,0,0,1,.3-.284.452.452,0,0,1,.409-.011l1.546.68a1.394,1.394,0,0,1,.646.455,1.411,1.411,0,0,1,.1.614v9.2l.273-.022a4.113,4.113,0,0,0,.636-.045,7.219,7.219,0,0,0,.84-.205c.152-.045.277-.086.375-.125a.79.79,0,0,1,.284-.056.68.68,0,0,1,.271.011,1.554,1.554,0,0,1,.319.125l1.159.7a.436.436,0,0,1,.215.273.36.36,0,0,1-.1.319l-.43.5a.518.518,0,0,1-.388.205,1.113,1.113,0,0,1-.454-.045,2.941,2.941,0,0,0-.375-.1,2.334,2.334,0,0,0-.443-.035h-2.181V19.1a2.143,2.143,0,0,1-.194.887,4.168,4.168,0,0,1-.465.8,7.109,7.109,0,0,1-.545.646,3.462,3.462,0,0,1-.431.4.392.392,0,0,1-.34.1c-.122-.022-.183-.087-.183-.194Z" transform="translate(36.151 0.001)"/>
          <path id="패스_22725" data-name="패스 22725" d="M104.522,5.676a3.918,3.918,0,0,1,.919-1.453,4.4,4.4,0,0,1,1.534-1.012,5.65,5.65,0,0,1,2.146-.375,5.385,5.385,0,0,1,2.068.375,4.658,4.658,0,0,1,1.543,1.012,4.2,4.2,0,0,1,.944,1.453,4.764,4.764,0,0,1,.33,1.749,4.705,4.705,0,0,1-.353,1.839,4.319,4.319,0,0,1-.988,1.454,4.448,4.448,0,0,1-1.534.954,5.62,5.62,0,0,1-2.011.341,4.863,4.863,0,0,1-3.6-1.307,4.448,4.448,0,0,1-1.307-3.282,5.051,5.051,0,0,1,.308-1.749m2.532-.386a3.207,3.207,0,0,0-.7,2.136,3.174,3.174,0,0,0,.7,2.169,2.6,2.6,0,0,0,2.067.807A2.552,2.552,0,0,0,111.2,9.6a3.293,3.293,0,0,0,.669-2.169A3.328,3.328,0,0,0,111.2,5.29a2.5,2.5,0,0,0-2.08-.84,2.543,2.543,0,0,0-2.067.84m3.407,16.357a5.3,5.3,0,0,1-.579-.034,1.754,1.754,0,0,1-.579-.17,1.176,1.176,0,0,1-.422-.4,1.358,1.358,0,0,1-.17-.738V16.944a3.4,3.4,0,0,0-.079-.84.653.653,0,0,0-.444-.431,1.311,1.311,0,0,1-.409-.2.454.454,0,0,1-.136-.364v-.863l2.181.271a1.564,1.564,0,0,1,.6.216.852.852,0,0,1,.308.353,1.739,1.739,0,0,1,.112.5c.014.183.022.371.022.568V19.33a1.624,1.624,0,0,0,.069.545c.045.121.212.181.5.181H114.8a16.065,16.065,0,0,0,1.954-.112,10.928,10.928,0,0,0,1.408-.252,1.936,1.936,0,0,1,.443-.067,1.385,1.385,0,0,1,.465.114L120,20.1c.334.138.527.261.579.375a.793.793,0,0,1,.013.489,1.019,1.019,0,0,1-.25.545,1.2,1.2,0,0,1-.7.136Zm7.451-19.377a1.28,1.28,0,0,0-.181-.738A2.186,2.186,0,0,0,117.139,1a.306.306,0,0,1-.159-.284.812.812,0,0,1,.091-.375.8.8,0,0,1,.3-.284.452.452,0,0,1,.409-.011l1.546.68a1.394,1.394,0,0,1,.646.455,1.412,1.412,0,0,1,.1.614V14.014a2.137,2.137,0,0,1-.194.885,4.085,4.085,0,0,1-.465.8,6.945,6.945,0,0,1-.545.648,3.46,3.46,0,0,1-.431.4.4.4,0,0,1-.34.1c-.122-.024-.183-.087-.183-.194Z" transform="translate(42.215 0.001)"/>
          <path id="패스_22726" data-name="패스 22726" d="M133.811,19.739a1.492,1.492,0,0,1-.124.534c-.084.2-.178.412-.285.624-.105.2-.212.384-.318.558s-.181.291-.226.351a.607.607,0,0,1-.308.192,1,1,0,0,1-.4.035.691.691,0,0,1-.33-.136.355.355,0,0,1-.146-.3V15.832a2.158,2.158,0,0,0-.159-.932,1.61,1.61,0,0,0-.409-.523.274.274,0,0,1-.08-.056.1.1,0,0,1-.034-.08l-6.362.228q-.226.023-.51.034c-.19.008-.382.011-.579.011s-.384-.007-.558-.022a2.388,2.388,0,0,1-.419-.067.416.416,0,0,1-.3-.228.646.646,0,0,1-.024-.455l.25-1.294a8,8,0,0,0,1.2.17q.727.057,1.477.08c.485.031.927.045,1.328.045h.83q1.633,0,2.963-.011t2.465-.056q1.227-.023,2.182-.069t1.748-.091c.531-.014,1.041-.041,1.534-.079s1.012-.087,1.555-.148c.242-.015.464-.031.659-.045s.379-.024.545-.024a1.954,1.954,0,0,1,.4.035.85.85,0,0,1,.284.1l.932.749a.732.732,0,0,1,.284.465.778.778,0,0,1-.1.422.991.991,0,0,1-.306.385.367.367,0,0,1-.306.046l-.659-.114q-.523-.091-.885-.136-.455-.023-1.273-.046t-1.817-.022c-.683,0-1.4.008-2.158.022l-2.226.046a1.242,1.242,0,0,1,.568.681,2.989,2.989,0,0,1,.09.726ZM133.663,6.1a1.522,1.522,0,0,1-.125.194.82.82,0,0,1-.114.2,1.167,1.167,0,0,0-.112.183L136.4,8.244a2.021,2.021,0,0,0,.319.148,3.353,3.353,0,0,0,.34.1c.105.031.219.06.341.091a2.957,2.957,0,0,0,.364.067,4.058,4.058,0,0,1,.715.284,1.384,1.384,0,0,1,.534.489l.431.658a.846.846,0,0,1,.17.523.864.864,0,0,1-.17.364.73.73,0,0,1-.5.3,1.592,1.592,0,0,1-.681-.135l-5.838-3.386a10.362,10.362,0,0,1-1.579,1.374,17.985,17.985,0,0,1-1.668,1.057,16.283,16.283,0,0,1-1.512.75q-.693.3-1.1.431a2.811,2.811,0,0,1-.4.1.665.665,0,0,1-.329-.011,1.9,1.9,0,0,1-.489-.148c-.145-.069-.215-.225-.215-.466a.56.56,0,0,1,.146-.375.852.852,0,0,1,.308-.237,14.762,14.762,0,0,0,1.442-.67,16.132,16.132,0,0,0,1.739-1.057A13.161,13.161,0,0,0,130.4,7.165a6.85,6.85,0,0,0,1.227-1.533.7.7,0,0,0,.021-.181.243.243,0,0,0-.067-.183l-.885-.659-2.682.205a3.434,3.434,0,0,1-.964,0,1.016,1.016,0,0,1-.534-.205.779.779,0,0,1-.284-.3.592.592,0,0,1-.035-.386l.181-1.135a15.989,15.989,0,0,0,1.648.26c.416.039.86.058,1.329.058.348.015.7.02,1.066.011s.728-.018,1.092-.034V2.042a1.168,1.168,0,0,0-.114-.59,2.122,2.122,0,0,0-.364-.409.3.3,0,0,1-.1-.273.758.758,0,0,1,.1-.341,1.118,1.118,0,0,1,.261-.3.333.333,0,0,1,.306-.067l1.023.318c.469.152.746.318.828.5a1.815,1.815,0,0,1,.125.749V3l1.7-.159a3.8,3.8,0,0,0,.444-.022,2.666,2.666,0,0,1,.3-.022c.093-.015.164-.027.218-.034a.782.782,0,0,1,.125-.011q.293,0,.51-.013c.143-.007.268-.011.375-.011a.723.723,0,0,1,.273.046c.076.03.159.067.25.112l.568.364a1.626,1.626,0,0,1,.556.5c.052.121.011.3-.125.545a1.015,1.015,0,0,1-.375.465.873.873,0,0,1-.646.011,2.719,2.719,0,0,1-.3-.056c-.09-.022-.19-.049-.3-.079l-.284-.046c-.1-.014-.194-.03-.284-.045-.212,0-.409-.008-.59-.024s-.364-.022-.547-.022-.363-.025-.545-.034-.37-.011-.568-.011c-.166,0-.329,0-.488.011s-.322.011-.489.011a1.317,1.317,0,0,1,.5.511.983.983,0,0,1-.091.9c-.045.076-.087.148-.125.215" transform="translate(49.509 0.022)"/>
          <path id="패스_22727" data-name="패스 22727" d="M139.508,18.237c-.15.014-.322.025-.51.034s-.384.011-.579.011-.384-.008-.558-.022a2.529,2.529,0,0,1-.42-.069.415.415,0,0,1-.3-.228.636.636,0,0,1-.022-.454l.249-1.294a8.231,8.231,0,0,0,1.206.17q.727.057,1.477.079c.483.031.927.046,1.328.046h3.032q1.024,0,1.932-.024V14.85a1.389,1.389,0,0,0-.1-.635.911.911,0,0,0-.534-.319.48.48,0,0,1-.319-.237.724.724,0,0,1-.066-.489l.066-.681,2.25.228c.393.045.632.167.717.363a1.37,1.37,0,0,1,.125.5v2.84q1.022-.023,1.839-.056c.545-.022,1.052-.051,1.522-.08.485-.03.951-.065,1.4-.1s.922-.079,1.421-.125c.242-.014.465-.034.67-.056a4.994,4.994,0,0,1,.534-.035,2.059,2.059,0,0,1,.4.035.649.649,0,0,1,.284.125l.932.749a.741.741,0,0,1,.284.466.773.773,0,0,1-.1.42,1.01,1.01,0,0,1-.306.386.374.374,0,0,1-.308.045l-.658-.114q-.523-.091-.885-.136c-.319-.015-.766-.03-1.34-.045s-1.22-.022-1.931-.022q-1.092,0-2.3.022l-2.34.045Zm13.562-7.384a1.369,1.369,0,0,1-.146.67q-.15.261-.672.261l-8.837.067a1.169,1.169,0,0,1-.09.478.945.945,0,0,1-.25.34,1.585,1.585,0,0,1-.592.205,1.044,1.044,0,0,1-.659-.069.665.665,0,0,1-.226-.125.4.4,0,0,1-.159-.284,1.175,1.175,0,0,1-.034-.181,1.65,1.65,0,0,0-.035-.181,1.611,1.611,0,0,0-.011-.183,1.309,1.309,0,0,1-.011-.181l-.386-7.632-.409-.8A.356.356,0,0,1,140.6,2.8a1.568,1.568,0,0,1,.523-.422A1.277,1.277,0,0,1,141.8,2.2a.7.7,0,0,1,.454.181l.568.659,9.451-.112a1.929,1.929,0,0,1,.351.034.678.678,0,0,1,.284.1.521.521,0,0,1,.114.205,1.169,1.169,0,0,1,.045.364Zm-2.089-5.929a.6.6,0,0,0-.069-.351c-.045-.053-.174-.08-.385-.08l-6.906.091c-.243,0-.384.045-.42.135a.853.853,0,0,0-.035.386l.181,5.2,7.156-.114a.5.5,0,0,0,.364-.114.613.613,0,0,0,.114-.431Z" transform="translate(55.534 0.89)"/>
          <path id="패스_22728" data-name="패스 22728" d="M155.35,8.335a.447.447,0,0,1-.091-.409l.045-.818,2.091.136c.364.045.587.167.67.363a1.343,1.343,0,0,1,.125.5v3.885q1.5-.137,3.168-.42a20.209,20.209,0,0,0,3.079-.762.419.419,0,0,1,.25.058c.121.052.226.1.318.148a1.226,1.226,0,0,1,.478.568c.09.228.053.371-.114.431a16.06,16.06,0,0,1-2.08.67q-1.123.285-2.237.511-1.09.2-2.113.351c-.681.1-1.272.17-1.77.216-.228.031-.517.056-.864.079s-.705.049-1.068.08l-1.1.045a9.082,9.082,0,0,1-.92,0c-.136,0-.306-.007-.51-.022a1.729,1.729,0,0,1-.6-.159.31.31,0,0,1-.194-.192.833.833,0,0,1-.01-.422l.181-1.113a9.4,9.4,0,0,0,1.839.17q1.092.013,2.227-.056V9.47a2.144,2.144,0,0,0-.069-.637.58.58,0,0,0-.409-.318.67.67,0,0,1-.318-.181m7.679-2.987q-.114.875-.25,1.6c-.105.5-.219.97-.34,1.408s-.252.871-.388,1.294a.911.911,0,0,1-.465.569.982.982,0,0,1-.648.09.876.876,0,0,1-.556-.284.651.651,0,0,1-.125-.624c.06-.333.129-.674.2-1.023s.145-.719.205-1.113.118-.822.17-1.283.094-.981.125-1.557q-1.136.067-2.362.114t-2.272.069c-.712.014-1.321.014-1.829,0a2.587,2.587,0,0,1-.964-.138.465.465,0,0,1-.239-.215.651.651,0,0,1-.011-.443l.25-1.227a9.487,9.487,0,0,0,1.657.3q.82.067,1.227.067c.409,0,.8,0,1.182-.011s.811-.027,1.3-.056l2.793-.205a.165.165,0,0,0,.058-.011.269.269,0,0,1,.08-.011,2.01,2.01,0,0,1,.635.125,2.4,2.4,0,0,1,.592.284.662.662,0,0,1,.112.148.3.3,0,0,1,.045.148q-.067,1.113-.18,1.988m-4.044,16.321a5.3,5.3,0,0,1-.579-.034,1.72,1.72,0,0,1-.58-.17,1.166,1.166,0,0,1-.419-.4,1.347,1.347,0,0,1-.171-.739v-2.25a3.391,3.391,0,0,0-.08-.84.651.651,0,0,0-.443-.431,1.282,1.282,0,0,1-.409-.2.446.446,0,0,1-.136-.364v-.885l2.181.3a1.535,1.535,0,0,1,.6.215.849.849,0,0,1,.308.353,1.785,1.785,0,0,1,.114.5c.014.181.022.371.022.568v2.067a1.662,1.662,0,0,0,.067.545c.046.121.212.181.5.181h3.157a16.065,16.065,0,0,0,1.954-.112,10.921,10.921,0,0,0,1.408-.25,1.875,1.875,0,0,1,.443-.069,1.406,1.406,0,0,1,.466.114l.93.364q.5.2.58.375a.8.8,0,0,1,.011.488,1,1,0,0,1-.25.545,1.194,1.194,0,0,1-.7.136Zm7.179-19.4a1.28,1.28,0,0,0-.183-.738,2.177,2.177,0,0,0-.59-.534.3.3,0,0,1-.159-.284.828.828,0,0,1,.09-.375.815.815,0,0,1,.3-.284.453.453,0,0,1,.409-.011l1.546.68a1.4,1.4,0,0,1,.648.455,1.414,1.414,0,0,1,.1.614V9.108l.388-.024a4.106,4.106,0,0,0,.635-.045,7.085,7.085,0,0,0,.84-.205c.152-.045.277-.087.375-.125a.821.821,0,0,1,.284-.056.685.685,0,0,1,.273.011,1.618,1.618,0,0,1,.319.125l1.158.7a.439.439,0,0,1,.216.273.364.364,0,0,1-.1.319l-.431.5a.517.517,0,0,1-.386.205,1.108,1.108,0,0,1-.454-.045,3.022,3.022,0,0,0-.377-.1,2.222,2.222,0,0,0-.441-.034h-2.3V14.2a2.163,2.163,0,0,1-.193.887,4.1,4.1,0,0,1-.466.8,6.913,6.913,0,0,1-.544.646,3.251,3.251,0,0,1-.433.4.392.392,0,0,1-.34.1q-.181-.034-.181-.194Z" transform="translate(61.522 0.001)"/>
        </g>
      </g>
    </g>
    <text id="_평화와_인권_화해와_상생_제주4·3의_가치를_인류_보편적_가치로_승화시키고_미래세대로_전승시켜_나가겠습니다._과_거와_현재를_이어주는_4·3_참배에_많은_참여를_부탁_드립니_다._4·3_기록물은_유네스코_세계기록_유산입니다." data-name="&quot;평화와 인권, 화해와 상생&quot; 제주4·3의 가치를 인류 보편적
가치로 승화시키고 미래세대로 전승시켜 나가겠습니다. 과
거와 현재를 이어주는 4·3 참배에 많은 참여를 부탁 드립니
다. 4·3 기록물은 유네스코 세계기록 유산입니다." transform="translate(32 209)" font-size="14" font-family="Helvetica" letter-spacing="-0.035em"><tspan x="0" y="0">&quot;</tspan><tspan y="0" font-family="AppleSDGothicNeo-Regular, Apple SD Gothic Neo">평화와</tspan><tspan y="0"> </tspan><tspan y="0" font-family="AppleSDGothicNeo-Regular, Apple SD Gothic Neo">인권</tspan><tspan y="0">, </tspan><tspan y="0" font-family="AppleSDGothicNeo-Regular, Apple SD Gothic Neo">화해와</tspan><tspan y="0"> </tspan><tspan y="0" font-family="AppleSDGothicNeo-Regular, Apple SD Gothic Neo">상생</tspan><tspan y="0">&quot; </tspan><tspan y="0" font-family="AppleSDGothicNeo-Regular, Apple SD Gothic Neo">제주</tspan><tspan y="0">4·3</tspan><tspan y="0" font-family="AppleSDGothicNeo-Regular, Apple SD Gothic Neo">의</tspan><tspan y="0"> </tspan><tspan y="0" font-family="AppleSDGothicNeo-Regular, Apple SD Gothic Neo">가치를</tspan><tspan y="0"> </tspan><tspan y="0" font-family="AppleSDGothicNeo-Regular, Apple SD Gothic Neo">인류</tspan><tspan y="0"> </tspan><tspan y="0" font-family="AppleSDGothicNeo-Regular, Apple SD Gothic Neo">보편적</tspan><tspan y="0"></tspan><tspan font-family="AppleSDGothicNeo-Regular, Apple SD Gothic Neo"><tspan x="0" y="22">가치로</tspan><tspan y="22" font-family="Helvetica"> </tspan><tspan y="22">승화시키고</tspan><tspan y="22" font-family="Helvetica"> </tspan><tspan y="22">미래세대로</tspan><tspan y="22" font-family="Helvetica"> </tspan><tspan y="22">전승시켜</tspan><tspan y="22" font-family="Helvetica"> </tspan><tspan y="22">나가겠습니다</tspan><tspan y="22" font-family="Helvetica">. </tspan><tspan y="22">과</tspan><tspan y="22" font-family="Helvetica"></tspan><tspan x="0" y="44">거와</tspan><tspan y="44" font-family="Helvetica"> </tspan><tspan y="44">현재를</tspan><tspan y="44" font-family="Helvetica"> </tspan><tspan y="44">이어주는</tspan><tspan y="44" xml:space="preserve" font-family="Helvetica"> 4·3 </tspan><tspan y="44">참배에</tspan><tspan y="44" font-family="Helvetica"> </tspan><tspan y="44">많은</tspan><tspan y="44" font-family="Helvetica"> </tspan><tspan y="44">참여를</tspan><tspan y="44" font-family="Helvetica"> </tspan><tspan y="44">부탁</tspan><tspan y="44" font-family="Helvetica"> </tspan><tspan y="44">드립니</tspan><tspan y="44" font-family="Helvetica"></tspan><tspan x="0" y="66">다</tspan><tspan y="66" font-family="Helvetica">. 4·3 </tspan><tspan y="66">기록물은</tspan><tspan y="66" font-family="Helvetica"> </tspan><tspan y="66">유네스코</tspan><tspan y="66" font-family="Helvetica"> </tspan><tspan y="66">세계기록</tspan><tspan y="66" font-family="Helvetica"> </tspan><tspan y="66">유산입니다</tspan><tspan y="66" font-family="Helvetica">.</tspan></tspan></text>
  </g>
</svg>
